<svg width="108" height="108" viewBox="0 0 108 108" fill="none" xmlns="http://www.w3.org/2000/svg">
<rect width="108" height="108" fill="#FB364E"/>
<path d="M24 52.2667C24 48.9161 26.7653 46.2 30.1765 46.2C33.5876 46.2 36.3529 48.9161 36.3529 52.2667V55.7333C36.3529 59.0839 33.5876 61.8 30.1765 61.8C26.7653 61.8 24 59.0839 24 55.7333V52.2667Z" fill="#100B1E"/>
<path d="M39.8824 39.2667C39.8824 35.9161 42.6477 33.2 46.0588 33.2C49.47 33.2 52.2353 35.9161 52.2353 39.2667V68.7333C52.2353 72.0839 49.47 74.8 46.0588 74.8C42.6477 74.8 39.8824 72.0839 39.8824 68.7333V39.2667Z" fill="#100B1E"/>
<path d="M55.7647 34.0667C55.7647 30.7161 58.53 28 61.9412 28C65.3523 28 68.1176 30.7161 68.1176 34.0667V73.9333C68.1176 77.2839 65.3523 80 61.9412 80C58.53 80 55.7647 77.2839 55.7647 73.9333V34.0667Z" fill="#100B1E"/>
<path d="M71.6471 52.2667C71.6471 48.9161 74.4124 46.2 77.8235 46.2C81.2347 46.2 84 48.9161 84 52.2667V55.7333C84 59.0839 81.2347 61.8 77.8235 61.8C74.4124 61.8 71.6471 59.0839 71.6471 55.7333V52.2667Z" fill="#100B1E"/>
</svg>
