<svg width="108" height="108" viewBox="0 0 108 108" fill="none" xmlns="http://www.w3.org/2000/svg">
<rect width="108" height="108" fill="#100B1E"/>
<path d="M30 52.6C30 49.8938 32.2122 47.7 34.9412 47.7C37.6701 47.7 39.8824 49.8938 39.8824 52.6V55.4C39.8824 58.1062 37.6701 60.3 34.9412 60.3C32.2122 60.3 30 58.1062 30 55.4V52.6Z" fill="#FB364E"/>
<path d="M42.7059 42.1C42.7059 39.3938 44.9181 37.2 47.6471 37.2C50.376 37.2 52.5882 39.3938 52.5882 42.1V65.9C52.5882 68.6062 50.376 70.8 47.6471 70.8C44.9181 70.8 42.7059 68.6062 42.7059 65.9V42.1Z" fill="#FB364E"/>
<path d="M55.4118 37.9C55.4118 35.1938 57.624 33 60.3529 33C63.0819 33 65.2941 35.1938 65.2941 37.9V70.1C65.2941 72.8062 63.0819 75 60.3529 75C57.624 75 55.4118 72.8062 55.4118 70.1V37.9Z" fill="#FB364E"/>
<path d="M68.1176 52.6C68.1176 49.8938 70.3299 47.7 73.0588 47.7C75.7878 47.7 78 49.8938 78 52.6V55.4C78 58.1062 75.7878 60.3 73.0588 60.3C70.3299 60.3 68.1176 58.1062 68.1176 55.4V52.6Z" fill="#FB364E"/>
</svg>
