<svg width="18" height="16" viewBox="0 0 18 16" fill="none" xmlns="http://www.w3.org/2000/svg">
<path d="M0 7.22764C0 6.2012 0.833677 5.3691 1.86207 5.3691C2.89046 5.3691 3.72414 6.2012 3.72414 7.22764V8.46666C3.72414 9.4931 2.89046 10.3252 1.86207 10.3252C0.833677 10.3252 0 9.4931 0 8.46666V7.22764Z" fill="white"/>
<path d="M4.75862 3.51057C4.75862 2.48412 5.5923 1.65203 6.62069 1.65203C7.64908 1.65203 8.48276 2.48413 8.48276 3.51057V12.1837C8.48276 13.2102 7.64908 14.0423 6.62069 14.0423C5.5923 14.0423 4.75862 13.2102 4.75862 12.1837V3.51057Z" fill="white"/>
<path d="M9.51724 1.85854C9.51724 0.832095 10.3509 0 11.3793 0C12.4077 0 13.2414 0.832094 13.2414 1.85853V13.8358C13.2414 14.8622 12.4077 15.6943 11.3793 15.6943C10.3509 15.6943 9.51724 14.8622 9.51724 13.8358V1.85854Z" fill="white"/>
<path d="M14.2759 7.22764C14.2759 6.2012 15.1095 5.3691 16.1379 5.3691C17.1663 5.3691 18 6.2012 18 7.22764V8.46666C18 9.4931 17.1663 10.3252 16.1379 10.3252C15.1095 10.3252 14.2759 9.4931 14.2759 8.46666V7.22764Z" fill="white"/>
</svg>
