<svg width="1551" height="300" viewBox="0 0 1551 300" fill="none" xmlns="http://www.w3.org/2000/svg">
<path fill-rule="evenodd" clip-rule="evenodd" d="M45.8846 285.849C60.7625 295.208 78.0612 299.991 95.6335 299.605C109.562 299.972 123.325 296.51 135.423 289.596C141.824 285.786 147.528 280.974 152.334 275.373V294.28H211.501V197.1C211.853 178.624 207.074 160.413 197.695 144.491C188.608 129.31 175.696 116.78 160.248 108.153C143.57 98.9778 124.772 94.3526 105.741 94.7422C86.8622 94.464 68.2591 99.2936 51.8998 108.72C36.3382 117.699 23.3029 130.471 14.0088 145.847C4.65282 161.291 -0.197408 179.044 0.00615396 197.1C-0.175168 215.041 4.05783 232.752 12.3324 248.673C20.0643 263.792 31.6351 276.612 45.8846 285.849ZM128.2 235.065C121.413 239.087 113.628 241.112 105.741 240.907C98.0961 241.064 90.5552 239.117 83.9423 235.278C77.3293 231.439 71.8989 225.856 68.2444 219.139C64.5408 212.446 62.5978 204.922 62.5978 197.272C62.5978 189.623 64.5408 182.099 68.2444 175.405C71.9498 168.725 77.4107 163.184 84.0369 159.382C90.663 155.58 98.2023 153.662 105.84 153.834C113.689 153.654 121.433 155.669 128.2 159.652C134.519 163.518 139.74 168.942 143.361 175.405C147.064 182.099 149.007 189.623 149.007 197.272C149.007 204.922 147.064 212.446 143.361 219.139C139.787 225.682 134.559 231.173 128.2 235.065Z" fill="white"/>
<path d="M540.884 107.167C526.634 98.0949 508.745 93.5588 487.215 93.5588C472.823 93.291 458.564 96.3537 445.552 102.508C433.846 108.059 423.842 116.649 416.585 127.382C415.269 129.392 414.064 131.464 412.974 133.589C411.978 131.471 410.872 129.399 409.658 127.382C402.835 116.569 393.057 107.936 381.48 102.508C367.844 96.2321 352.949 93.1705 337.944 93.5588C316.43 93.5588 298.541 98.0867 284.275 107.142C270.34 115.869 259.214 128.425 252.227 143.308C244.982 158.881 241.326 175.882 241.527 193.057V294.132H304.046V203.559C303.943 195.18 305.26 186.844 307.941 178.906C310.273 171.893 314.547 165.687 320.268 161.008C325.815 156.497 333.284 154.204 342.603 154.204C350.654 153.818 358.6 156.154 365.16 160.836C370.991 165.426 375.325 171.648 377.61 178.709C380.274 186.727 381.582 195.134 381.48 203.583V294.181H443.974V203.608C443.88 195.158 445.197 186.751 447.87 178.733C450.138 171.696 454.424 165.481 460.196 160.86C466.548 156.193 474.312 153.852 482.186 154.229C490.254 153.848 498.209 156.25 504.718 161.033C510.492 165.687 514.812 171.898 517.168 178.931C519.841 186.871 521.15 195.206 521.038 203.583V294.157H583.607V193.081C583.817 175.908 580.169 158.907 572.932 143.332C565.937 128.454 554.813 115.9 540.884 107.167Z" fill="white"/>
<path fill-rule="evenodd" clip-rule="evenodd" d="M664.731 286.589C681.532 295.471 700.31 299.95 719.312 299.605C738.181 299.909 756.787 295.159 773.202 285.849C788.783 277.013 801.792 264.267 810.945 248.87C820.155 233.427 824.932 215.745 824.751 197.765C825.168 179.013 820.744 160.469 811.907 143.924C803.643 128.78 791.235 116.303 776.136 107.956C760.868 99.4099 742.986 95.1368 722.492 95.1368C709.651 95.0965 696.981 98.0865 685.513 103.864C682.287 105.427 679.183 107.206 676.219 109.186V11.9343H613.626V197.765C613.357 216.166 618.058 234.299 627.234 250.251C636.119 265.608 649.102 278.19 664.731 286.589ZM741.672 235.065C734.913 239.069 727.165 241.094 719.312 240.907C711.406 241.071 703.609 239.05 696.779 235.065C690.4 231.285 685.161 225.85 681.618 219.336C677.966 212.597 676.098 205.036 676.194 197.371C676.129 189.835 677.996 182.408 681.618 175.8C685.194 169.252 690.421 163.753 696.779 159.85C703.565 155.736 711.378 153.633 719.312 153.785C727.189 153.597 734.952 155.686 741.672 159.8C747.944 163.747 753.097 169.239 756.636 175.751C760.265 182.357 762.141 189.784 762.084 197.322C762.172 204.988 760.297 212.55 756.636 219.287C753.138 225.782 747.973 231.229 741.672 235.065Z" fill="white"/>
<path d="M885.867 76.0805C879.241 76.1159 872.728 74.3704 867.008 71.0267C861.238 67.7046 856.423 62.9494 853.03 57.2212C849.536 51.4109 847.719 44.7471 847.779 37.9676C847.719 31.1959 849.537 24.5402 853.03 18.7386C856.423 13.0105 861.238 8.25525 867.008 4.93313C872.746 1.64697 879.255 -0.0546467 885.867 0.00262026C890.878 -0.0564495 895.851 0.883748 900.495 2.76828C905.139 4.65282 909.36 7.4439 912.913 10.9785C916.466 14.513 919.279 18.7202 921.188 23.3542C923.096 27.9882 924.062 32.9561 924.029 37.9676C924.079 44.6282 922.382 51.1856 919.107 56.986C915.833 62.7865 911.095 67.6275 905.367 71.0267C899.449 74.4573 892.706 76.2049 885.867 76.0805ZM854.78 100.56H917.348V294.157H854.78V100.56Z" fill="white"/>
<path fill-rule="evenodd" clip-rule="evenodd" d="M999.344 286.194C1016.3 295.059 1035.21 299.534 1054.34 299.211C1075.33 299.227 1093.66 294.305 1109.34 284.444C1125.17 274.442 1137.79 260.111 1145.71 243.151L1097.49 219.041C1093.78 227.149 1087.68 233.928 1080.01 238.467C1072.01 243.199 1062.87 245.622 1053.58 245.468C1044.81 245.68 1036.14 243.534 1028.48 239.256C1021.4 235.147 1015.66 229.065 1011.97 221.753C1009.95 217.701 1008.48 213.425 1007.57 209.032H1146.84V191.923C1146.95 175.043 1143.02 158.382 1135.38 143.333C1127.83 128.394 1116.25 115.867 1101.95 107.167C1087.32 98.0952 1069.64 93.5427 1048.9 93.5098C1030.21 93.1104 1011.78 97.8885 995.646 107.315C980.64 116.234 968.29 129 959.875 144.294C951.262 159.946 946.846 177.56 947.056 195.424C946.626 214.507 951.462 233.341 961.034 249.856C970.221 265.26 983.477 277.833 999.344 286.194ZM1078.21 161.403C1081.38 165.549 1083.45 170.436 1084.22 175.603H1010.02C1011.48 170.347 1014.01 165.448 1017.44 161.206C1020.99 156.928 1025.43 153.478 1030.46 151.098C1035.96 148.479 1041.99 147.155 1048.08 147.228C1054.2 147.086 1060.26 148.413 1065.76 151.098C1070.63 153.557 1074.88 157.079 1078.21 161.403Z" fill="white"/>
<path d="M1274.51 155.782C1266.29 155.429 1258.19 157.89 1251.56 162.759C1245.57 167.5 1241.06 173.843 1238.54 181.051C1235.75 189.043 1234.37 197.461 1234.47 205.926V294.157H1171.85V198.53C1171.6 180.557 1175.38 162.755 1182.92 146.439C1190.31 130.899 1202.15 117.907 1216.94 109.115C1232.31 99.7962 1251.5 95.1368 1274.51 95.1368C1297.83 95.1368 1317.14 99.7962 1332.44 109.115C1347.25 117.936 1359.14 130.915 1366.63 146.439C1374.32 162.715 1378.18 180.533 1377.92 198.53V294.157H1315.31V205.926C1315.41 197.442 1313.96 189.011 1311.02 181.051C1308.39 173.848 1303.82 167.515 1297.8 162.759C1291.05 157.859 1282.84 155.399 1274.51 155.782Z" fill="white"/>
<path d="M1461.08 289.104C1473.98 296.368 1490.42 300 1510.39 300C1517.53 299.896 1524.64 299.07 1531.61 297.535C1538.09 296.334 1544.37 294.243 1550.27 291.322V235.731C1545.01 238.547 1539.39 240.637 1533.56 241.943C1527.85 243.442 1521.98 244.27 1516.08 244.408C1506.48 244.408 1498.83 241.623 1493.13 236.051C1487.43 230.48 1484.58 222.64 1484.58 212.533V153.046H1550.42V100.561H1484.58V51.9705H1421.98V100.561H1387.94V153.046H1421.98V214.801C1421.77 230.016 1425.15 245.067 1431.84 258.732C1438.22 271.63 1448.43 282.239 1461.08 289.104Z" fill="white"/>
</svg>
